<svg width="255" height="117" viewBox="0 0 255 117" fill="none" xmlns="http://www.w3.org/2000/svg">
<path d="M2.66581 100.509C0.962652 100.509 0.111075 100.047 0.111075 99.1236L0.333226 85.49C0.333226 83.0146 0.277688 79.2644 0.166613 74.2396C0.0555376 69.2517 0 65.5015 0 62.9891V62.6566C0 61.6959 0.0925627 60.8092 0.277688 59.9964C0.499838 58.9988 1.09224 58.5 2.05489 58.5C4.64665 58.5 6.70154 59.3313 8.21957 60.9939C9.73759 62.6566 10.4966 64.8549 10.4966 67.589C10.4966 69.2517 10.0523 70.9882 9.1637 72.7986C8.2751 74.609 7.21989 75.9576 5.99806 76.8444C8.14552 78.2853 9.71908 80.1511 10.7188 82.4419C11.7555 84.6957 12.2738 87.1896 12.2738 89.9237C12.2738 91.2169 11.8295 92.8241 10.9409 94.7454C9.86718 97.0361 8.40469 98.6803 6.55344 99.6778C5.44268 100.232 4.22086 100.509 2.88796 100.509H2.66581ZM3.22118 76.013C4.18383 75.7914 4.99838 74.997 5.66484 73.6299C6.22021 72.5954 6.73856 71.3392 7.21989 69.8613C7.33096 69.4549 7.51609 68.9376 7.77527 68.3095V66.3698C7.77527 65.2614 7.36799 64.1899 6.55344 63.1554C5.73889 62.1208 4.81326 61.6036 3.77656 61.6036C3.25821 61.6036 2.99903 62.1763 2.99903 63.3216C2.99903 65.7601 3.03606 67.94 3.11011 69.8613L3.22118 76.013ZM3.44333 97.6273C5.25756 97.3686 6.70154 96.5373 7.77527 95.1333C8.84899 93.7293 9.38586 92.0482 9.38586 90.09C9.38586 88.3904 9.23776 86.8386 8.94156 85.4346C8.68238 83.9937 8.33064 82.9037 7.88634 82.1648C7.47906 81.4628 7.07179 80.8716 6.66451 80.3913C6.25724 79.911 5.9055 79.5969 5.6093 79.4492L5.165 79.2829H3.16564C3.35077 83.5318 3.44333 89.6466 3.44333 97.6273Z" fill="black"/>
<path d="M28.516 100.066C27.9236 100.066 27.4793 99.9549 27.1831 99.7332C26.9239 99.5116 26.7943 99.1421 26.7943 98.6248V91.3647C26.313 91.0322 25.4059 90.7366 24.0729 90.4779C22.74 90.2193 21.4812 90.053 20.2964 89.9791C19.8891 90.755 19.5929 91.6972 19.4078 92.8056L19.1856 93.914C19.1486 94.1727 19.0375 94.7454 18.8524 95.6321C18.6673 96.5188 18.4636 97.2947 18.2415 97.9598C18.0193 98.5879 17.7972 99.0867 17.575 99.4561C16.1681 99.4561 15.3535 99.0867 15.1314 98.3477C15.5387 97.7566 16.0015 96.02 16.5198 93.1381L18.3526 82.9961C19.1671 78.1929 19.9076 74.0918 20.5741 70.6926C21.2776 67.2935 22.0181 64.4485 22.7956 62.1578C23.6472 59.6084 24.4617 58.3337 25.2392 58.3337C26.0168 58.3337 26.6092 58.4815 27.0164 58.7771C27.0164 60.255 27.3682 63.8204 28.0717 69.4734C28.8122 75.0155 29.1824 78.8026 29.1824 80.8347C29.1824 82.7929 29.386 85.6009 29.7933 89.2587C30.1636 92.9904 30.3487 95.9646 30.3487 98.1815C30.3487 99.4377 29.7378 100.066 28.516 100.066ZM25.628 88.1503C25.9242 88.1503 26.2945 88.0948 26.7388 87.984C26.6277 86.3583 26.4426 84.3447 26.1834 81.9431C25.3318 73.593 24.906 68.4758 24.906 66.5915V66.1481C24.5358 66.5176 24.0174 68.1987 23.351 71.1914C22.7215 74.1472 22.1291 77.3247 21.5738 80.7238C21.0184 84.123 20.7222 86.3768 20.6852 87.4852C22.2402 87.9286 23.8878 88.1503 25.628 88.1503Z" fill="black"/>
<path d="M47.9324 100.62C47.34 100.62 46.9327 100.509 46.7106 100.287C46.5255 100.066 46.3959 99.6409 46.3218 99.0128L45.822 88.5382L45.8775 86.9864L45.9331 81.8323C45.9331 76.4749 45.9146 72.4476 45.8775 69.7505C45.8405 68.8637 45.822 66.8501 45.822 63.7096L45.8775 61.4927C45.8775 61.0863 45.8035 60.8461 45.6554 60.7723C45.5073 60.6614 45.1 60.569 44.4336 60.4951C43.6931 60.4213 43.1562 60.3843 42.823 60.3843C41.7863 60.3843 40.8051 60.5875 39.8795 60.9939C39.6573 61.5112 39.5277 62.5827 39.4907 64.2084C39.4537 65.834 39.4352 67.8292 39.4352 70.1938C39.3981 70.748 39.4167 73.1681 39.4907 77.454V81.9431C39.4907 82.6451 39.5648 83.6611 39.7129 84.9913C39.861 86.543 39.935 87.7254 39.935 88.5382C39.935 89.0555 39.898 89.7205 39.8239 90.5334L39.7684 92.2514L40.0461 98.5694C40.0461 99.0867 39.898 99.4746 39.6018 99.7332C39.3056 99.9919 38.8983 100.103 38.38 100.066C37.3433 100.066 36.8249 99.567 36.8249 98.5694C36.936 94.6899 36.9915 90.792 36.9915 86.8756V84.2708C36.9175 81.3889 36.8434 79.2459 36.7694 77.8419C36.6953 76.7335 36.6213 75.1448 36.5472 73.0757C36.4361 70.1569 36.3066 65.871 36.1585 60.218C36.1585 59.5899 36.288 59.1281 36.5472 58.8325C36.8434 58.5 37.2877 58.3153 37.8801 58.2783C41.7307 58.2044 44.6372 58.1675 46.5995 58.1675C47.303 58.1675 47.8769 58.3892 48.3212 58.8325C48.8025 59.2759 48.9691 59.8116 48.821 60.4397C48.6729 61.3265 48.5989 62.3425 48.5989 63.4879C48.5989 64.3377 48.6174 64.9843 48.6544 65.4276C48.6544 65.7601 48.6544 66.1666 48.6544 66.6469C48.6914 67.1272 48.6914 67.6814 48.6544 68.3095C48.6174 69.1224 48.5989 70.1384 48.5989 71.3577C48.5248 74.0179 48.4323 75.9022 48.3212 77.0106C48.3582 77.8604 48.3952 79.2275 48.4323 81.1118C48.5063 82.9592 48.5804 84.2708 48.6544 85.0467C48.5433 85.7487 48.4878 86.4691 48.4878 87.2081C48.4878 88.0579 48.5989 89.3695 48.821 91.143C48.9691 92.4361 49.0617 93.4522 49.0987 94.1911L49.1543 95.5213C49.2283 96.7036 49.2653 97.5718 49.2653 98.126L49.2098 99.3453C49.2468 100.195 48.821 100.62 47.9324 100.62Z" fill="black"/>
<path d="M66.5184 101.008C65.5558 101.008 64.7227 100.638 64.0192 99.8995C63.3528 99.1606 62.9825 98.2554 62.9085 97.1839C62.6863 95.6321 62.5382 93.1381 62.4642 89.702L62.3531 86.2659C62.3531 85.3053 62.0569 84.3816 61.4645 83.4949C60.8721 82.5712 60.1131 82.0355 59.1875 81.8877C59.4466 89.5727 59.5762 95.2626 59.5762 98.9574C59.5762 99.9919 59.206 100.509 58.4655 100.509C58.1693 100.509 57.8731 100.435 57.5769 100.287C56.8734 99.9549 56.5772 99.4192 56.6883 98.6803C56.9845 96.5004 57.1326 94.3389 57.1326 92.196C57.1326 90.6442 57.077 89.0185 56.966 87.3189C56.9289 86.5061 56.9104 85.2684 56.9104 83.6057C56.8734 83.0885 56.8549 82.2756 56.8549 81.1672C56.7068 75.1078 56.5402 70.5448 56.3551 67.4782C56.244 65.6308 55.9663 63.2662 55.522 60.3843C55.485 60.2365 55.4664 60.0148 55.4664 59.7192C55.4664 58.5739 55.9478 57.9088 56.9104 57.7241C57.4658 57.6133 57.9101 57.7795 58.2433 58.2229C58.6136 58.6293 58.8172 59.165 58.8542 59.8301C58.8913 60.3104 58.9283 60.8831 58.9653 61.5481C59.0023 62.1763 59.0209 62.675 59.0209 63.0445L59.0764 64.8734C59.1504 67.0164 59.1875 68.5866 59.1875 69.5842V79.4492C59.5207 78.6733 59.928 77.4725 60.4093 75.8468C60.8906 74.2211 61.2609 72.8356 61.5201 71.6902C61.6311 71.099 61.7422 70.3786 61.8533 69.5288C62.0014 68.679 62.1124 68.0324 62.1865 67.589C62.4457 65.2244 62.7789 63.3216 63.1862 61.8807C63.6675 60.1811 64.5746 58.9434 65.9075 58.1675C66.4629 57.8349 66.9257 57.6687 67.296 57.6687C67.5551 57.6687 67.9069 57.761 68.3512 57.9458C68.9436 58.2044 69.2398 58.7586 69.2398 59.6084C69.2398 60.2365 68.851 60.6429 68.0735 60.8277C66.5925 61.0863 65.6298 62.0654 65.1855 63.765C64.9264 64.7995 64.6857 65.9264 64.4635 67.1457C64.2044 68.7714 63.9822 69.8244 63.7971 70.3047C63.1677 72.2259 62.8159 73.7777 62.7419 74.96C62.6308 75.9576 62.4642 76.8444 62.242 77.6203C62.0199 78.3592 61.6681 78.9873 61.1868 79.5046C62.1124 79.6524 62.9085 80.2989 63.5749 81.4443C64.2414 82.5897 64.6672 84.086 64.8523 85.9334C65.0004 87.2266 65.2411 90.0346 65.5743 94.3574L65.6854 95.5767C65.7964 96.5004 66.2407 97.0176 67.0183 97.1285C67.6107 97.3132 68.0365 97.5534 68.2956 97.8489C68.5548 98.1076 68.6844 98.477 68.6844 98.9574C68.6844 99.5485 68.4808 100.029 68.0735 100.398C67.6662 100.805 67.1479 101.008 66.5184 101.008Z" fill="black"/>
<path d="M85.1925 100.066C84.6001 100.066 84.1558 99.9549 83.8596 99.7332C83.6004 99.5116 83.4708 99.1421 83.4708 98.6248V91.3647C82.9895 91.0322 82.0824 90.7366 80.7495 90.4779C79.4166 90.2193 78.1578 90.053 76.9729 89.9791C76.5657 90.755 76.2695 91.6972 76.0844 92.8056L75.8622 93.914C75.8252 94.1727 75.7141 94.7454 75.529 95.6321C75.3438 96.5188 75.1402 97.2947 74.9181 97.9598C74.6959 98.5879 74.4738 99.0867 74.2516 99.4561C72.8447 99.4561 72.0301 99.0867 71.808 98.3477C72.2152 97.7566 72.678 96.02 73.1964 93.1381L75.0291 82.9961C75.8437 78.1929 76.5842 74.0918 77.2506 70.6926C77.9541 67.2935 78.6946 64.4485 79.4721 62.1578C80.3237 59.6084 81.1383 58.3337 81.9158 58.3337C82.6933 58.3337 83.2857 58.4815 83.693 58.7771C83.693 60.255 84.0447 63.8204 84.7482 69.4734C85.4887 75.0155 85.859 78.8026 85.859 80.8347C85.859 82.7929 86.0626 85.6009 86.4699 89.2587C86.8401 92.9904 87.0253 95.9646 87.0253 98.1815C87.0253 99.4377 86.4143 100.066 85.1925 100.066ZM82.3046 88.1503C82.6008 88.1503 82.971 88.0948 83.4153 87.984C83.3042 86.3583 83.1191 84.3447 82.8599 81.9431C82.0084 73.593 81.5826 68.4758 81.5826 66.5915V66.1481C81.2123 66.5176 80.694 68.1987 80.0275 71.1914C79.3981 74.1472 78.8057 77.3247 78.2503 80.7238C77.6949 84.123 77.3987 86.3768 77.3617 87.4852C78.9168 87.9286 80.5644 88.1503 82.3046 88.1503Z" fill="black"/>
<path fill-rule="evenodd" clip-rule="evenodd" d="M125.366 37.0781C114.015 35.4643 82.1254 30.0291 83.1387 27.6642C102.732 -18.0601 146.648 1.77602 148.337 23.9658C148.855 26.7484 148.675 37.0781 148.337 45.4834C147.843 50.6479 150.602 77.0381 152.516 94.3921C150.541 95.7069 146.607 98.2259 143.945 99.2769C138.24 101.53 134.543 101.854 128.406 101.967C122.434 102.076 118.928 101.648 113.204 99.9493C110.026 99.0059 105.088 96.7027 102.727 95.5647C105.827 79.5992 109.231 58.6652 109.488 54.5611C96.5163 50.7956 91.5842 47.5007 90.2329 43.4662C91.9001 42.9921 96.8839 42.3509 102.594 41.6162C113.082 40.2668 126.022 38.602 125.366 37.0781ZM102.371 23.5346C105.915 23.5346 108.789 20.6746 108.789 17.1467C108.789 13.6187 105.915 10.7587 102.371 10.7587C98.8257 10.7587 95.9521 13.6187 95.9521 17.1467C95.9521 20.6746 98.8257 23.5346 102.371 23.5346ZM121.288 26.8967C124.833 26.8967 127.707 24.0367 127.707 20.5088C127.707 16.9808 124.833 14.1208 121.288 14.1208C117.743 14.1208 114.87 16.9808 114.87 20.5088C114.87 24.0367 117.743 26.8967 121.288 26.8967Z" fill="black"/>
<path d="M152.686 95.9265C150.692 97.352 146.971 99.8849 144.283 100.958C138.465 103.281 134.674 103.519 128.406 103.648C122.172 103.775 118.465 103.528 112.529 101.63C109.457 100.649 104.622 98.056 102.473 96.8651C102.262 97.9413 102.052 98.9914 101.846 100.008C103.898 101.008 109.418 103.633 112.867 104.656C118.59 106.355 122.096 106.783 128.068 106.673C134.206 106.561 137.902 106.237 143.608 103.984C146.706 102.76 151.53 99.5468 152.979 98.5604C152.884 97.7148 152.786 96.8353 152.686 95.9265Z" fill="black"/>
<path d="M153.146 100.056C151.543 101.231 147.054 104.424 143.945 105.665C138.127 107.988 134.336 108.226 128.068 108.355C121.834 108.482 118.128 108.235 112.191 106.337C108.82 105.26 103.326 102.242 101.588 101.267C101.337 102.481 101.092 103.641 100.853 104.733C101.953 105.301 108.914 108.862 112.867 110.036C118.59 111.735 122.096 112.162 128.068 112.053C134.206 111.941 137.902 111.616 143.608 109.363C146.69 108.146 151.954 104.959 153.584 103.955C153.453 102.789 153.305 101.481 153.146 100.056Z" fill="black"/>
<path d="M153.752 105.439C151.976 106.617 147.051 109.805 143.945 111.044C138.127 113.367 134.336 113.605 128.068 113.734C121.834 113.862 118.128 113.614 112.191 111.717C108.512 110.541 101.745 106.776 100.55 106.104C100.371 106.9 100.197 107.652 100.029 108.354C103.746 116.087 142.256 123.148 154.08 108.354L153.762 105.53L153.76 105.51L153.754 105.46L153.754 105.455L153.753 105.451L153.752 105.439Z" fill="black"/>
<path d="M103.565 14.5316C103.961 14.1377 104.602 14.1377 104.998 14.5316C105.394 14.9255 105.394 15.5641 104.998 15.958L101.176 19.7618C100.78 20.1557 100.139 20.1557 99.7429 19.7618C99.3472 19.3679 99.3472 18.7293 99.7429 18.3354L103.565 14.5316Z" fill="black"/>
<path d="M104.998 18.3353C105.394 18.7292 105.394 19.3678 104.998 19.7617C104.602 20.1556 103.961 20.1556 103.565 19.7617L99.743 15.9579C99.3472 15.564 99.3472 14.9254 99.743 14.5315C100.139 14.1376 100.78 14.1376 101.176 14.5315L104.998 18.3353Z" fill="black"/>
<path d="M122.482 17.8937C122.878 17.4998 123.52 17.4998 123.916 17.8937C124.312 18.2876 124.312 18.9262 123.916 19.3201L120.094 23.1239C119.698 23.5178 119.056 23.5178 118.661 23.1239C118.265 22.73 118.265 22.0913 118.661 21.6974L122.482 17.8937Z" fill="black"/>
<path d="M123.916 21.6974C124.312 22.0913 124.312 22.7299 123.916 23.1238C123.52 23.5177 122.878 23.5177 122.483 23.1238L118.661 19.32C118.265 18.9261 118.265 18.2875 118.661 17.8936C119.056 17.4997 119.698 17.4997 120.094 17.8936L123.916 21.6974Z" fill="black"/>
<path d="M166.193 100.509C164.49 100.509 163.638 100.047 163.638 99.1236L163.861 85.49C163.861 83.0146 163.805 79.2644 163.694 74.2396C163.583 69.2517 163.527 65.5015 163.527 62.9891V62.6566C163.527 61.6959 163.62 60.8092 163.805 59.9964C164.027 58.9988 164.62 58.5 165.582 58.5C168.174 58.5 170.229 59.3313 171.747 60.9939C173.265 62.6566 174.024 64.8549 174.024 67.589C174.024 69.2517 173.58 70.9882 172.691 72.7986C171.803 74.609 170.747 75.9576 169.525 76.8444C171.673 78.2853 173.246 80.1511 174.246 82.4419C175.283 84.6957 175.801 87.1896 175.801 89.9237C175.801 91.2169 175.357 92.8241 174.468 94.7454C173.395 97.0361 171.932 98.6803 170.081 99.6778C168.97 100.232 167.748 100.509 166.415 100.509H166.193ZM166.749 76.013C167.711 75.7914 168.526 74.997 169.192 73.6299C169.748 72.5954 170.266 71.3392 170.747 69.8613C170.858 69.4549 171.043 68.9376 171.303 68.3095V66.3698C171.303 65.2614 170.895 64.1899 170.081 63.1554C169.266 62.1208 168.341 61.6036 167.304 61.6036C166.786 61.6036 166.526 62.1763 166.526 63.3216C166.526 65.7601 166.563 67.94 166.637 69.8613L166.749 76.013ZM166.971 97.6273C168.785 97.3686 170.229 96.5373 171.303 95.1333C172.376 93.7293 172.913 92.0482 172.913 90.09C172.913 88.3904 172.765 86.8386 172.469 85.4346C172.21 83.9937 171.858 82.9037 171.414 82.1648C171.006 81.4628 170.599 80.8716 170.192 80.3913C169.785 79.911 169.433 79.5969 169.137 79.4492L168.692 79.2829H166.693C166.878 83.5318 166.971 89.6466 166.971 97.6273Z" fill="black"/>
<path d="M197.819 97.7935C197.893 98.163 197.93 98.4216 197.93 98.5694C197.93 98.9758 197.838 99.3268 197.653 99.6224C197.468 99.881 197.208 100.029 196.875 100.066C196.209 100.103 195.709 99.9919 195.376 99.7332C195.079 99.4746 194.913 98.9758 194.876 98.2369L194.82 95.9092C194.82 94.9116 194.783 93.3783 194.709 91.3093C194.635 88.7229 194.561 86.7832 194.487 85.49L194.209 76.8998C194.135 73.3159 194.061 70.6003 193.987 68.7529L193.876 65.4276V59.553C193.913 59.1096 194.024 58.7217 194.209 58.3891C194.431 58.0566 194.728 57.8904 195.098 57.8904C195.394 57.8904 195.672 57.9643 195.931 58.112C196.375 58.3337 196.653 58.6478 196.764 59.0542C196.875 59.4237 196.912 59.8855 196.875 60.4397V67.6999C196.801 69.9906 196.727 73.205 196.653 77.3431C196.69 77.3801 196.727 77.8419 196.764 78.7287C196.801 79.6154 196.838 81.1672 196.875 83.384C197.097 86.1551 197.227 88.1687 197.264 89.4249C197.412 94.0064 197.597 96.7959 197.819 97.7935ZM190.211 80.7238C190.618 81.4997 190.951 82.7005 191.21 84.3262C191.469 85.9519 191.599 87.3374 191.599 88.4828C191.599 90.1454 191.192 91.9743 190.377 93.9695C189.6 95.9646 188.563 97.461 187.267 98.4586C186.527 98.9758 185.916 99.3268 185.434 99.5116C184.99 99.6594 184.324 99.7887 183.435 99.8995C183.213 99.9365 182.935 99.9549 182.602 99.9549C182.01 99.9549 181.528 99.8626 181.158 99.6778C180.825 99.4561 180.621 99.179 180.547 98.8465C180.547 96.9253 180.603 95.1148 180.714 93.4153C180.862 90.9767 180.936 88.7784 180.936 86.8202C180.936 84.123 180.843 81.2226 180.658 78.119C180.584 76.9367 180.51 75.5512 180.436 73.9625C180.399 72.3368 180.362 71.099 180.325 70.2493L180.269 67.6999C180.269 66.0373 180.306 63.5064 180.38 60.1072C180.417 59.5899 180.621 59.1835 180.991 58.8879C181.399 58.5924 181.88 58.4815 182.435 58.5554C182.954 58.6293 183.361 58.8695 183.657 59.2759C183.99 59.6454 184.101 60.0703 183.99 60.5506C183.62 62.1024 183.435 64.2453 183.435 66.9794C183.435 67.94 183.417 68.6605 183.379 69.1408C183.342 69.5842 183.324 70.1384 183.324 70.8035C183.324 71.4316 183.305 72.0597 183.268 72.6878L183.213 76.1239C183.583 76.05 183.879 76.013 184.101 76.013C185.249 76.013 186.379 76.4934 187.489 77.454C188.637 78.3777 189.544 79.4676 190.211 80.7238ZM187.489 95.2441C188.008 94.0618 188.396 92.9349 188.656 91.8635C188.952 90.792 189.1 89.5912 189.1 88.2611C189.1 85.8965 188.452 83.4579 187.156 80.9455C186.193 79.0981 184.935 78.2853 183.379 78.507L183.546 89.3695C183.62 90.1085 183.657 91.494 183.657 93.5261C183.657 94.3759 183.639 94.8747 183.602 95.0225C183.528 95.3919 183.491 95.6506 183.491 95.7984C183.491 96.2787 183.602 96.7405 183.824 97.1839C184.083 97.11 184.509 96.9807 185.101 96.7959C185.694 96.5742 186.193 96.3526 186.601 96.1309C187.008 95.8723 187.304 95.5767 187.489 95.2441Z" fill="black"/>
<path d="M215.907 100.62C215.315 100.62 214.907 100.509 214.685 100.287C214.5 100.066 214.371 99.6409 214.297 99.0128L213.797 88.5382L213.852 86.9864L213.908 81.8323C213.908 76.4749 213.889 72.4476 213.852 69.7505C213.815 68.8637 213.797 66.8501 213.797 63.7096L213.852 61.4927C213.852 61.0863 213.778 60.8461 213.63 60.7723C213.482 60.6614 213.075 60.569 212.408 60.4951C211.668 60.4213 211.131 60.3843 210.798 60.3843C209.761 60.3843 208.78 60.5875 207.854 60.9939C207.632 61.5112 207.502 62.5827 207.465 64.2084C207.428 65.834 207.41 67.8292 207.41 70.1938C207.373 70.748 207.391 73.1681 207.465 77.454V81.9431C207.465 82.6451 207.539 83.6611 207.688 84.9913C207.836 86.543 207.91 87.7254 207.91 88.5382C207.91 89.0555 207.873 89.7205 207.799 90.5334L207.743 92.2514L208.021 98.5694C208.021 99.0867 207.873 99.4746 207.577 99.7332C207.28 99.9919 206.873 100.103 206.355 100.066C205.318 100.066 204.8 99.567 204.8 98.5694C204.911 94.6899 204.966 90.792 204.966 86.8756V84.2708C204.892 81.3889 204.818 79.2459 204.744 77.8419C204.67 76.7335 204.596 75.1448 204.522 73.0757C204.411 70.1569 204.281 65.871 204.133 60.218C204.133 59.5899 204.263 59.1281 204.522 58.8325C204.818 58.5 205.262 58.3153 205.855 58.2783C209.705 58.2044 212.612 58.1675 214.574 58.1675C215.278 58.1675 215.852 58.3892 216.296 58.8325C216.777 59.2759 216.944 59.8116 216.796 60.4397C216.648 61.3265 216.574 62.3425 216.574 63.4879C216.574 64.3377 216.592 64.9843 216.629 65.4276C216.629 65.7601 216.629 66.1666 216.629 66.6469C216.666 67.1272 216.666 67.6814 216.629 68.3095C216.592 69.1224 216.574 70.1384 216.574 71.3577C216.5 74.0179 216.407 75.9022 216.296 77.0106C216.333 77.8604 216.37 79.2275 216.407 81.1118C216.481 82.9592 216.555 84.2708 216.629 85.0467C216.518 85.7487 216.463 86.4691 216.463 87.2081C216.463 88.0579 216.574 89.3695 216.796 91.143C216.944 92.4361 217.036 93.4522 217.073 94.1911L217.129 95.5213C217.203 96.7036 217.24 97.5718 217.24 98.126L217.185 99.3453C217.222 100.195 216.796 100.62 215.907 100.62Z" fill="black"/>
<path d="M234.493 101.008C233.531 101.008 232.697 100.638 231.994 99.8995C231.328 99.1606 230.957 98.2554 230.883 97.1839C230.661 95.6321 230.513 93.1381 230.439 89.702L230.328 86.2659C230.328 85.3053 230.032 84.3816 229.439 83.4949C228.847 82.5712 228.088 82.0355 227.162 81.8877C227.421 89.5727 227.551 95.2626 227.551 98.9574C227.551 99.9919 227.181 100.509 226.44 100.509C226.144 100.509 225.848 100.435 225.552 100.287C224.848 99.9549 224.552 99.4192 224.663 98.6803C224.959 96.5004 225.107 94.3389 225.107 92.196C225.107 90.6442 225.052 89.0185 224.941 87.3189C224.904 86.5061 224.885 85.2684 224.885 83.6057C224.848 83.0885 224.83 82.2756 224.83 81.1672C224.682 75.1078 224.515 70.5448 224.33 67.4782C224.219 65.6308 223.941 63.2662 223.497 60.3843C223.46 60.2365 223.441 60.0148 223.441 59.7192C223.441 58.5739 223.923 57.9088 224.885 57.7241C225.441 57.6133 225.885 57.7795 226.218 58.2229C226.588 58.6293 226.792 59.165 226.829 59.8301C226.866 60.3104 226.903 60.8831 226.94 61.5481C226.977 62.1763 226.996 62.675 226.996 63.0445L227.051 64.8734C227.125 67.0164 227.162 68.5866 227.162 69.5842V79.4492C227.495 78.6733 227.903 77.4725 228.384 75.8468C228.865 74.2211 229.236 72.8356 229.495 71.6902C229.606 71.099 229.717 70.3786 229.828 69.5288C229.976 68.679 230.087 68.0324 230.161 67.589C230.42 65.2244 230.754 63.3216 231.161 61.8807C231.642 60.1811 232.549 58.9434 233.882 58.1675C234.438 57.8349 234.9 57.6687 235.271 57.6687C235.53 57.6687 235.882 57.761 236.326 57.9458C236.918 58.2044 237.215 58.7586 237.215 59.6084C237.215 60.2365 236.826 60.6429 236.048 60.8277C234.567 61.0863 233.605 62.0654 233.16 63.765C232.901 64.7995 232.66 65.9264 232.438 67.1457C232.179 68.7714 231.957 69.8244 231.772 70.3047C231.142 72.2259 230.791 73.7777 230.717 74.96C230.606 75.9576 230.439 76.8444 230.217 77.6203C229.995 78.3592 229.643 78.9873 229.162 79.5046C230.087 79.6524 230.883 80.2989 231.55 81.4443C232.216 82.5897 232.642 84.086 232.827 85.9334C232.975 87.2266 233.216 90.0346 233.549 94.3574L233.66 95.5767C233.771 96.5004 234.215 97.0176 234.993 97.1285C235.585 97.3132 236.011 97.5534 236.27 97.8489C236.53 98.1076 236.659 98.477 236.659 98.9574C236.659 99.5485 236.455 100.029 236.048 100.398C235.641 100.805 235.123 101.008 234.493 101.008Z" fill="black"/>
<path d="M253.167 100.066C252.575 100.066 252.131 99.9549 251.834 99.7332C251.575 99.5116 251.446 99.1421 251.446 98.6248V91.3647C250.964 91.0322 250.057 90.7366 248.724 90.4779C247.391 90.2193 246.132 90.053 244.948 89.9791C244.54 90.755 244.244 91.6972 244.059 92.8056L243.837 93.914C243.8 94.1727 243.689 94.7454 243.504 95.6321C243.319 96.5188 243.115 97.2947 242.893 97.9598C242.671 98.5879 242.449 99.0867 242.226 99.4561C240.819 99.4561 240.005 99.0867 239.783 98.3477C240.19 97.7566 240.653 96.02 241.171 93.1381L243.004 82.9961C243.818 78.1929 244.559 74.0918 245.225 70.6926C245.929 67.2935 246.669 64.4485 247.447 62.1578C248.298 59.6084 249.113 58.3337 249.891 58.3337C250.668 58.3337 251.26 58.4815 251.668 58.7771C251.668 60.255 252.019 63.8204 252.723 69.4734C253.463 75.0155 253.834 78.8026 253.834 80.8347C253.834 82.7929 254.037 85.6009 254.445 89.2587C254.815 92.9904 255 95.9646 255 98.1815C255 99.4377 254.389 100.066 253.167 100.066ZM250.279 88.1503C250.576 88.1503 250.946 88.0948 251.39 87.984C251.279 86.3583 251.094 84.3447 250.835 81.9431C249.983 73.593 249.557 68.4758 249.557 66.5915V66.1481C249.187 66.5176 248.669 68.1987 248.002 71.1914C247.373 74.1472 246.78 77.3247 246.225 80.7238C245.67 84.123 245.373 86.3768 245.336 87.4852C246.892 87.9286 248.539 88.1503 250.279 88.1503Z" fill="black"/>
</svg>
