<svg xmlns="http://www.w3.org/2000/svg" width="255" height="117" fill="none"><path fill="#000" d="M2.666 100.509c-1.703 0-2.555-.462-2.555-1.385L.333 85.49c0-2.475-.055-6.226-.166-11.25C.056 69.252 0 65.5 0 62.99v-.333c0-.961.093-1.848.278-2.66.222-.998.814-1.497 1.777-1.497 2.592 0 4.647.831 6.165 2.494 1.518 1.663 2.277 3.86 2.277 6.595 0 1.663-.445 3.4-1.333 5.21-.889 1.81-1.944 3.159-3.166 4.045 2.148 1.441 3.721 3.307 4.72 5.598 1.037 2.254 1.556 4.748 1.556 7.482 0 1.293-.444 2.9-1.333 4.821-1.074 2.291-2.536 3.935-4.388 4.933-1.11.554-2.332.831-3.665.831h-.222Zm.555-24.496c.963-.222 1.777-1.016 2.444-2.383.555-1.035 1.074-2.29 1.555-3.769.111-.406.296-.923.555-1.552v-1.94c0-1.108-.407-2.18-1.222-3.214-.814-1.034-1.74-1.551-2.776-1.551-.519 0-.778.572-.778 1.718 0 2.438.037 4.618.111 6.54l.111 6.151Zm.222 21.614c1.815-.258 3.259-1.09 4.332-2.494 1.074-1.404 1.61-3.085 1.61-5.043 0-1.7-.147-3.251-.443-4.655-.26-1.441-.611-2.531-1.056-3.27a12.266 12.266 0 0 0-1.221-1.774c-.408-.48-.76-.794-1.056-.942l-.444-.166h-2c.186 4.249.278 10.364.278 18.344ZM28.516 100.066c-.592 0-1.037-.111-1.333-.333-.26-.221-.389-.59-.389-1.108v-7.26c-.481-.333-1.388-.628-2.721-.887a29.542 29.542 0 0 0-3.777-.499c-.407.776-.703 1.718-.888 2.827l-.222 1.108c-.037.259-.148.831-.334 1.718a20.906 20.906 0 0 1-.61 2.328c-.223.628-.445 1.127-.667 1.496-1.407 0-2.221-.37-2.444-1.108.408-.591.87-2.328 1.389-5.21l1.833-10.142c.814-4.803 1.555-8.904 2.221-12.303.704-3.4 1.444-6.245 2.222-8.535.851-2.55 1.666-3.824 2.443-3.824.778 0 1.37.147 1.777.443 0 1.478.352 5.043 1.056 10.696.74 5.543 1.11 9.33 1.11 11.362 0 1.958.204 4.766.611 8.424.37 3.731.556 6.706.556 8.922 0 1.257-.611 1.885-1.833 1.885ZM25.628 88.15c.296 0 .666-.055 1.11-.166-.11-1.626-.295-3.64-.555-6.04-.851-8.351-1.277-13.468-1.277-15.353v-.443c-.37.37-.889 2.05-1.555 5.043a203.078 203.078 0 0 0-1.777 9.533c-.556 3.399-.852 5.653-.889 6.761 1.555.444 3.203.665 4.943.665ZM47.932 100.62c-.592 0-1-.111-1.221-.333-.185-.221-.315-.646-.39-1.274l-.499-10.475.055-1.552.056-5.154c0-5.357-.018-9.384-.056-12.081-.037-.887-.055-2.9-.055-6.041l.055-2.217c0-.407-.074-.647-.222-.72-.148-.112-.555-.204-1.221-.278-.74-.074-1.278-.11-1.611-.11a7.242 7.242 0 0 0-2.944.609c-.222.517-.351 1.589-.388 3.214-.037 1.626-.056 3.621-.056 5.986-.037.554-.018 2.974.056 7.26v4.49c0 .701.074 1.717.222 3.047.148 1.552.222 2.734.222 3.547 0 .517-.037 1.183-.111 1.995l-.056 1.718.278 6.318c0 .518-.148.906-.444 1.164-.296.259-.704.37-1.222.333-1.037 0-1.555-.499-1.555-1.497.111-3.88.166-7.777.166-11.693V84.27c-.074-2.882-.148-5.025-.222-6.43a165.77 165.77 0 0 1-.222-4.765c-.11-2.92-.24-7.205-.389-12.858 0-.628.13-1.09.39-1.386.295-.332.74-.517 1.332-.554 3.85-.074 6.757-.11 8.72-.11.703 0 1.277.221 1.721.665.482.443.648.979.5 1.607-.148.887-.222 1.903-.222 3.048 0 .85.018 1.496.055 1.94v1.219c.037.48.037 1.034 0 1.662a69.105 69.105 0 0 0-.055 3.049c-.074 2.66-.167 4.544-.278 5.653.037.85.074 2.217.111 4.1.074 1.848.148 3.16.222 3.936a13.808 13.808 0 0 0-.166 2.161c0 .85.11 2.162.333 3.935.148 1.293.24 2.31.278 3.048l.055 1.33c.074 1.183.111 2.05.111 2.605l-.055 1.22c.037.849-.389 1.274-1.278 1.274ZM66.518 101.008c-.962 0-1.795-.37-2.499-1.108-.666-.74-1.037-1.645-1.11-2.716-.223-1.552-.37-4.046-.445-7.482l-.11-3.436c0-.96-.297-1.884-.89-2.771-.592-.924-1.35-1.46-2.276-1.607.259 7.685.388 13.375.388 17.07 0 1.034-.37 1.551-1.11 1.551-.297 0-.593-.074-.89-.222-.703-.332-.999-.868-.888-1.607.296-2.18.445-4.341.445-6.484 0-1.552-.056-3.177-.167-4.877-.037-.813-.056-2.05-.056-3.713-.037-.517-.055-1.33-.055-2.439-.148-6.06-.315-10.622-.5-13.689-.111-1.847-.389-4.212-.833-7.094a2.95 2.95 0 0 1-.056-.665c0-1.145.482-1.81 1.444-1.995.556-.11 1 .056 1.333.499.37.406.574.942.611 1.607.037.48.074 1.053.111 1.718.037.628.056 1.127.056 1.496l.055 1.83c.074 2.142.111 3.713.111 4.71v9.865c.334-.776.741-1.977 1.222-3.602a67.585 67.585 0 0 0 1.111-4.157 40.26 40.26 0 0 0 .333-2.161c.148-.85.26-1.497.334-1.94.259-2.365.592-4.267 1-5.708.48-1.7 1.388-2.938 2.72-3.714.556-.332 1.019-.498 1.389-.498.26 0 .61.092 1.055.277.593.258.889.813.889 1.662 0 .629-.389 1.035-1.166 1.22-1.481.258-2.444 1.237-2.888 2.937-.26 1.034-.5 2.161-.723 3.38-.259 1.626-.48 2.68-.666 3.16-.63 1.92-.981 3.473-1.055 4.655a16.248 16.248 0 0 1-.5 2.66 4.709 4.709 0 0 1-1.055 1.885c.925.147 1.721.794 2.388 1.94.666 1.145 1.092 2.641 1.277 4.488.148 1.294.39 4.102.722 8.424l.111 1.22c.111.923.556 1.44 1.333 1.552.593.184 1.019.424 1.278.72.259.259.388.628.388 1.108 0 .592-.203 1.072-.61 1.441-.408.407-.926.61-1.556.61ZM85.192 100.066c-.592 0-1.036-.111-1.332-.333-.26-.221-.39-.59-.39-1.108v-7.26c-.48-.333-1.388-.628-2.72-.887a29.54 29.54 0 0 0-3.777-.499c-.407.776-.704 1.718-.889 2.827l-.222 1.108c-.037.259-.148.831-.333 1.718a20.928 20.928 0 0 1-.61 2.328c-.223.628-.445 1.127-.667 1.496-1.407 0-2.222-.37-2.444-1.108.407-.591.87-2.328 1.388-5.21l1.833-10.142c.815-4.803 1.555-8.904 2.222-12.303.703-3.4 1.444-6.245 2.221-8.535.852-2.55 1.666-3.824 2.444-3.824.777 0 1.37.147 1.777.443 0 1.478.352 5.043 1.055 10.696.74 5.543 1.111 9.33 1.111 11.362 0 1.958.204 4.766.61 8.424.371 3.731.556 6.706.556 8.922 0 1.257-.61 1.885-1.833 1.885ZM82.305 88.15c.296 0 .666-.055 1.11-.166-.11-1.626-.296-3.64-.555-6.04-.852-8.351-1.277-13.468-1.277-15.353v-.443c-.37.37-.889 2.05-1.555 5.043a203.337 203.337 0 0 0-1.778 9.533c-.555 3.399-.851 5.653-.888 6.761 1.555.444 3.202.665 4.943.665Z"/><path fill="#000" fill-rule="evenodd" d="M125.366 37.078c-11.351-1.614-43.24-7.049-42.227-9.414 19.593-45.724 63.509-25.888 65.198-3.698.518 2.782.338 13.112 0 21.517-.494 5.165 2.265 31.555 4.179 48.91-1.975 1.314-5.909 3.833-8.571 4.884-5.705 2.253-9.402 2.577-15.539 2.69-5.972.109-9.478-.319-15.202-2.018-3.178-.943-8.116-3.246-10.477-4.384 3.1-15.966 6.504-36.9 6.761-41.004-12.972-3.765-17.904-7.06-19.255-11.095 1.667-.474 6.65-1.115 12.361-1.85 10.488-1.35 23.428-3.014 22.772-4.538Zm-22.995-13.543c3.544 0 6.418-2.86 6.418-6.388s-2.874-6.388-6.418-6.388c-3.545 0-6.419 2.86-6.419 6.388s2.874 6.388 6.419 6.388Zm18.917 3.362c3.545 0 6.419-2.86 6.419-6.388s-2.874-6.388-6.419-6.388c-3.545 0-6.418 2.86-6.418 6.388s2.873 6.388 6.418 6.388Z" clip-rule="evenodd"/><path fill="#000" d="M152.686 95.927c-1.994 1.425-5.715 3.958-8.403 5.031-5.818 2.323-9.609 2.561-15.877 2.69-6.234.127-9.941-.12-15.877-2.018-3.072-.981-7.907-3.574-10.056-4.765a506.593 506.593 0 0 1-.627 3.143c2.052 1 7.572 3.625 11.021 4.648 5.723 1.699 9.229 2.127 15.201 2.017 6.138-.112 9.834-.436 15.54-2.689 3.098-1.224 7.922-4.437 9.371-5.424-.095-.845-.193-1.725-.293-2.633Z"/><path fill="#000" d="M153.146 100.056c-1.603 1.175-6.092 4.368-9.201 5.609-5.818 2.323-9.609 2.561-15.877 2.69-6.234.127-9.94-.12-15.877-2.018-3.371-1.077-8.865-4.095-10.603-5.07a308.168 308.168 0 0 1-.735 3.466c1.1.568 8.061 4.129 12.014 5.303 5.723 1.699 9.229 2.126 15.201 2.017 6.138-.112 9.834-.437 15.54-2.69 3.082-1.217 8.346-4.404 9.976-5.408-.131-1.166-.279-2.474-.438-3.899Z"/><path fill="#000" d="M153.752 105.439c-1.776 1.178-6.701 4.366-9.807 5.605-5.818 2.323-9.609 2.561-15.877 2.69-6.234.128-9.94-.12-15.877-2.017-3.679-1.176-10.446-4.941-11.641-5.613-.179.796-.353 1.548-.521 2.25 3.717 7.733 42.227 14.794 54.051 0l-.318-2.824-.002-.02-.006-.05v-.005l-.001-.004-.001-.012ZM103.565 14.532a1.017 1.017 0 0 1 1.433 0 1.005 1.005 0 0 1 0 1.426l-3.822 3.804a1.017 1.017 0 0 1-1.433 0 1.005 1.005 0 0 1 0-1.427l3.822-3.803Z"/><path fill="#000" d="M104.998 18.335a1.005 1.005 0 0 1 0 1.427 1.017 1.017 0 0 1-1.433 0l-3.822-3.804a1.005 1.005 0 0 1 0-1.427 1.017 1.017 0 0 1 1.433 0l3.822 3.804ZM122.482 17.894a1.018 1.018 0 0 1 1.434 0 1.005 1.005 0 0 1 0 1.426l-3.822 3.804a1.017 1.017 0 0 1-1.433 0 1.005 1.005 0 0 1 0-1.427l3.821-3.803Z"/><path fill="#000" d="M123.916 21.697a1.005 1.005 0 0 1 0 1.427 1.017 1.017 0 0 1-1.433 0l-3.822-3.804a1.005 1.005 0 0 1 0-1.426 1.017 1.017 0 0 1 1.433 0l3.822 3.803ZM166.193 100.509c-1.703 0-2.555-.462-2.555-1.385l.223-13.634c0-2.475-.056-6.226-.167-11.25-.111-4.988-.167-8.739-.167-11.25v-.333c0-.961.093-1.848.278-2.66.222-.998.815-1.497 1.777-1.497 2.592 0 4.647.831 6.165 2.494 1.518 1.663 2.277 3.86 2.277 6.595 0 1.663-.444 3.4-1.333 5.21-.888 1.81-1.944 3.159-3.166 4.045 2.148 1.441 3.721 3.307 4.721 5.598 1.037 2.254 1.555 4.748 1.555 7.482 0 1.293-.444 2.9-1.333 4.821-1.073 2.291-2.536 3.935-4.387 4.933-1.111.554-2.333.831-3.666.831h-.222Zm.556-24.496c.962-.222 1.777-1.016 2.443-2.383.556-1.035 1.074-2.29 1.555-3.769.111-.406.296-.923.556-1.552v-1.94c0-1.108-.408-2.18-1.222-3.214-.815-1.034-1.74-1.551-2.777-1.551-.518 0-.778.572-.778 1.718 0 2.438.037 4.618.111 6.54l.112 6.151Zm.222 21.614c1.814-.258 3.258-1.09 4.332-2.494 1.073-1.404 1.61-3.085 1.61-5.043 0-1.7-.148-3.251-.444-4.655-.259-1.441-.611-2.531-1.055-3.27a12.346 12.346 0 0 0-1.222-1.774c-.407-.48-.759-.794-1.055-.942l-.445-.166h-1.999c.185 4.249.278 10.364.278 18.344ZM197.819 97.793c.074.37.111.629.111.776 0 .407-.092.758-.277 1.053a1.055 1.055 0 0 1-.778.444c-.666.037-1.166-.074-1.499-.333-.297-.258-.463-.757-.5-1.496l-.056-2.328c0-.997-.037-2.53-.111-4.6a222.967 222.967 0 0 0-.222-5.819l-.278-8.59c-.074-3.584-.148-6.3-.222-8.147l-.111-3.325v-5.875c.037-.443.148-.831.333-1.164.222-.332.519-.499.889-.499.296 0 .574.074.833.222.444.222.722.536.833.942.111.37.148.831.111 1.386v7.26c-.074 2.29-.148 5.505-.222 9.643.037.037.074.499.111 1.386.037.886.074 2.438.111 4.655.222 2.771.352 4.785.389 6.04.148 4.582.333 7.372.555 8.37Zm-7.608-17.07c.407.777.74 1.978.999 3.603.259 1.626.389 3.011.389 4.157 0 1.662-.407 3.491-1.222 5.486-.777 1.996-1.814 3.492-3.11 4.49-.74.517-1.351.868-1.833 1.053-.444.147-1.11.277-1.999.388-.222.036-.5.055-.833.055-.592 0-1.074-.092-1.444-.277-.333-.222-.537-.499-.611-.831 0-1.922.056-3.732.167-5.432.148-2.438.222-4.637.222-6.595 0-2.697-.093-5.597-.278-8.701a265.027 265.027 0 0 1-.222-4.156 193.53 193.53 0 0 0-.111-3.714l-.056-2.55c0-1.662.037-4.193.111-7.592.037-.517.241-.923.611-1.22.408-.295.889-.406 1.444-.332.519.074.926.315 1.222.72.333.37.444.795.333 1.276-.37 1.551-.555 3.694-.555 6.428 0 .961-.018 1.681-.056 2.162-.037.443-.055.997-.055 1.662 0 .629-.019 1.257-.056 1.885l-.055 3.436c.37-.074.666-.111.888-.111 1.148 0 2.278.48 3.388 1.441a10.468 10.468 0 0 1 2.722 3.27Zm-2.722 14.521c.519-1.182.907-2.31 1.167-3.38.296-1.072.444-2.273.444-3.603 0-2.364-.648-4.803-1.944-7.316-.963-1.847-2.221-2.66-3.777-2.438l.167 10.862c.074.74.111 2.125.111 4.157 0 .85-.018 1.349-.055 1.496-.074.37-.111.629-.111.776 0 .48.111.942.333 1.386a61.35 61.35 0 0 0 1.277-.388 11.912 11.912 0 0 0 1.5-.665c.407-.259.703-.554.888-.887ZM215.907 100.62c-.592 0-1-.111-1.222-.333-.185-.221-.314-.646-.388-1.274l-.5-10.475.055-1.552.056-5.154c0-5.357-.019-9.384-.056-12.081-.037-.887-.055-2.9-.055-6.041l.055-2.217c0-.407-.074-.647-.222-.72-.148-.112-.555-.204-1.222-.278-.74-.074-1.277-.11-1.61-.11a7.244 7.244 0 0 0-2.944.609c-.222.517-.352 1.589-.389 3.214-.037 1.626-.055 3.621-.055 5.986-.037.554-.019 2.974.055 7.26v4.49c0 .701.074 1.717.223 3.047.148 1.552.222 2.734.222 3.547 0 .517-.037 1.183-.111 1.995l-.056 1.718.278 6.318c0 .518-.148.906-.444 1.164-.297.259-.704.37-1.222.333-1.037 0-1.555-.499-1.555-1.497.111-3.88.166-7.777.166-11.693V84.27c-.074-2.882-.148-5.025-.222-6.43a165.918 165.918 0 0 1-.222-4.765c-.111-2.92-.241-7.205-.389-12.858 0-.628.13-1.09.389-1.386.296-.332.74-.517 1.333-.554 3.85-.074 6.757-.11 8.719-.11.704 0 1.278.221 1.722.665.481.443.648.979.5 1.607-.148.887-.222 1.903-.222 3.048 0 .85.018 1.496.055 1.94v1.219c.037.48.037 1.034 0 1.662a69.208 69.208 0 0 0-.055 3.049c-.074 2.66-.167 4.544-.278 5.653.037.85.074 2.217.111 4.1.074 1.848.148 3.16.222 3.936a13.82 13.82 0 0 0-.166 2.161c0 .85.111 2.162.333 3.935.148 1.293.24 2.31.277 3.048l.056 1.33c.074 1.183.111 2.05.111 2.605l-.055 1.22c.037.849-.389 1.274-1.278 1.274ZM234.493 101.008c-.962 0-1.796-.37-2.499-1.108-.666-.74-1.037-1.645-1.111-2.716-.222-1.552-.37-4.046-.444-7.482l-.111-3.436c0-.96-.296-1.884-.889-2.771-.592-.924-1.351-1.46-2.277-1.607.259 7.685.389 13.375.389 17.07 0 1.034-.37 1.551-1.111 1.551a1.97 1.97 0 0 1-.888-.222c-.704-.332-1-.868-.889-1.607.296-2.18.444-4.341.444-6.484a74.93 74.93 0 0 0-.166-4.877c-.037-.813-.056-2.05-.056-3.713-.037-.517-.055-1.33-.055-2.439-.148-6.06-.315-10.622-.5-13.689-.111-1.847-.389-4.212-.833-7.094a2.945 2.945 0 0 1-.056-.665c0-1.145.482-1.81 1.444-1.995.556-.11 1 .056 1.333.499.37.406.574.942.611 1.607.037.48.074 1.053.111 1.718.037.628.056 1.127.056 1.496l.055 1.83c.074 2.142.111 3.713.111 4.71v9.865c.333-.776.741-1.977 1.222-3.602a67.676 67.676 0 0 0 1.111-4.157c.111-.591.222-1.311.333-2.161.148-.85.259-1.497.333-1.94.259-2.365.593-4.267 1-5.708.481-1.7 1.388-2.938 2.721-3.714.556-.332 1.018-.498 1.389-.498.259 0 .611.092 1.055.277.592.258.889.813.889 1.662 0 .629-.389 1.035-1.167 1.22-1.481.258-2.443 1.237-2.888 2.937a53.208 53.208 0 0 0-.722 3.38c-.259 1.626-.481 2.68-.666 3.16-.63 1.92-.981 3.473-1.055 4.655a16.258 16.258 0 0 1-.5 2.66 4.711 4.711 0 0 1-1.055 1.885c.925.147 1.721.794 2.388 1.94.666 1.145 1.092 2.641 1.277 4.488.148 1.294.389 4.102.722 8.424l.111 1.22c.111.923.555 1.44 1.333 1.552.592.184 1.018.424 1.277.72.26.259.389.628.389 1.108 0 .592-.204 1.072-.611 1.441-.407.407-.925.61-1.555.61ZM253.167 100.066c-.592 0-1.036-.111-1.333-.333-.259-.221-.388-.59-.388-1.108v-7.26c-.482-.333-1.389-.628-2.722-.887a29.555 29.555 0 0 0-3.776-.499c-.408.776-.704 1.718-.889 2.827l-.222 1.108c-.037.259-.148.831-.333 1.718a20.904 20.904 0 0 1-.611 2.328c-.222.628-.444 1.127-.667 1.496-1.407 0-2.221-.37-2.443-1.108.407-.591.87-2.328 1.388-5.21l1.833-10.142a498.54 498.54 0 0 1 2.221-12.303c.704-3.4 1.444-6.245 2.222-8.535.851-2.55 1.666-3.824 2.444-3.824.777 0 1.369.147 1.777.443 0 1.478.351 5.043 1.055 10.696.74 5.543 1.111 9.33 1.111 11.362 0 1.958.203 4.766.611 8.424.37 3.731.555 6.706.555 8.922 0 1.257-.611 1.885-1.833 1.885Zm-2.888-11.916c.297 0 .667-.055 1.111-.166-.111-1.626-.296-3.64-.555-6.04-.852-8.351-1.278-13.468-1.278-15.353v-.443c-.37.37-.888 2.05-1.555 5.043a203.347 203.347 0 0 0-1.777 9.533c-.555 3.399-.852 5.653-.889 6.761 1.556.444 3.203.665 4.943.665Z"/></svg>